PathFileType	4	(X/Y/Z)	subject01_walk1.trc																																																																																																																									
DataRate	CameraRate	NumFrames	NumMarkers	Units	OrigDataRate	OrigDataStartFrame	OrigNumFrames																																																																																																																					
60	60	4	41	mm	60	19	151																																																																																																																					
Frame#	Time	R.ASIS			L.ASIS			V.Sacral			R.Thigh.Upper			R.Thigh.Front			R.Thigh.Rear			L.Thigh.Upper			L.Thigh.Front			L.Thigh.Rear			R.Shank.Upper			R.Shank.Front			R.Shank.Rear			L.Shank.Upper			L.Shank.Front			L.Shank.Rear			R.Heel			R.Midfoot.Sup			R.Midfoot.Lat			R.Toe.Tip			L.Heel			L.Midfoot.Sup			L.Midfoot.Lat			L.Toe.Tip			Sternum			R.Acromium			L.Acromium			R.Bicep			L.Bicep			R.Elbow			L.Elbow			R.Wrist.Med			R.Wrist.Lat			L.Wrist.Med			L.Wrist.Lat			R.Toe.Lat			R.Toe.Med			L.Toe.Lat			L.Toe.Med			R.Temple			L.Temple			Top.Head		
		X1	Y1	Z1	X2	Y2	Z2	X3	Y3	Z3	X4	Y4	Z4	X5	Y5	Z5	X6	Y6	Z6	X7	Y7	Z7	X8	Y8	Z8	X9	Y9	Z9	X10	Y10	Z10	X11	Y11	Z11	X12	Y12	Z12	X13	Y13	Z13	X14	Y14	Z14	X15	Y15	Z15	X16	Y16	Z16	X17	Y17	Z17	X18	Y18	Z18	X19	Y19	Z19	X20	Y20	Z20	X21	Y21	Z21	X22	Y22	Z22	X23	Y23	Z23	X24	Y24	Z24	X25	Y25	Z25	X26	Y26	Z26	X27	Y27	Z27	X28	Y28	Z28	X29	Y29	Z29	X30	Y30	Z30	X31	Y31	Z31	X32	Y32	Z32	X33	Y33	Z33	X34	Y34	Z34	X35	Y35	Z35	X36	Y36	Z36	X37	Y37	Z37	X38	Y38	Z38	X39	Y39	Z39	X40	Y40	Z40	X41	Y41	Z41
																																																																																																																												
19	0.3	633.40619	1086.53101	118.33463	648.42877	1070.04553	-141.6098	442.93808	1075.15125	-11.38125	634.181	780.325	196.888	728.012	732.097	126.016	658.415	661.126	201.307	607.351	761.822	-189.089	700.143	735.356	-123.691	614.69	653.853	-167.972	593.1582	527.68536	172.86095	629.28632	442.03317	132.39374	541.07123	458.64368	176.55931	604.54248	440.57971	-155.96776	648.12848	390.44238	-99.71843	581.43756	397.72592	-161.52536	282.55869	306.24487	59.948	381.55103	194.79237	62.68531	340.87302	203.77083	160.85046	434.6918	72.57064	132.62982	498.30588	76.70679	-58.64106	668.94043	75.2394	-28.90304	653.50751	67.94034	-126.40899	781.40491	49.76806	-58.36177	664.77588	1385.72058	-31.92515	555.90363	1485.03687	168.59731	608.89734	1489.49219	-247.20322	549.30481	1286.07336	223.80499	640.97748	1249.42322	-261.86047	496.08167	1188.76636	253.34401	597.88147	1149.78418	-296.25949	616.94812	947.34363	269.76511	571.67139	938.73969	316.09534	718.16974	930.49042	-237.3931	676.26746	915.7486	-299.11298	368.492	121.35205	191.98706	406.50433	107.50166	89.94158	716.05145	41.88581	-133.918	730.95508	51.16611	-32.72045	731.24927	1607.16528	45.35922	746.89984	1607.98779	-93.36333	743.75037	1782.52661	-19.34829
20	0.317	630.10767	1087.62183	116.42979	644.91675	1069.98633	-143.30998	440.5629	1076.1333	-12.09356	640.078	784.535	193.978	734.615	740.286	121.467	668.938	666.337	197.41	598.546	761.276	-189.607	690.577	732.561	-124.082	603.197	653.168	-168.438	609.11438	529.20465	170.26305	647.59558	445.85205	131.48013	559.23761	457.60779	175.46674	588.29077	440.79752	-157.05078	631.11078	390.22223	-100.16623	565.17236	398.36246	-162.08292	305.67062	294.91284	61.14189	410.49664	189.36118	61.32173	370.86716	194.99199	160.1528	471.72348	69.8372	129.13914	479.73166	76.97516	-58.9252	650.14288	75.19024	-29.19664	634.59576	67.81609	-126.66947	762.43481	49.28255	-58.67113	662.60626	1386.17786	-32.89791	551.22321	1484.96667	168.08514	608.56781	1491.24438	-248.50739	543.23975	1287.68164	222.23764	642.26227	1252.17749	-262.38766	489.78928	1190.95764	251.20627	600.7984	1151.14197	-296.58707	609.8028	949.45837	269.30109	563.63666	940.42627	315.25882	726.08618	935.93939	-236.47179	684.98956	919.48608	-297.61642	403.53098	113.12968	189.91762	441.18408	103.26771	86.99161	697.10309	41.61973	-134.17601	711.95105	50.95176	-32.96968	730.08301	1608.52625	44.15432	745.15265	1609.05872	-93.22866	742.4679	1783.61926	-19.48829
21	0.333	629.54779	1089.78967	114.35317	641.75702	1069.47253	-146.0419	437.90891	1076.64941	-12.85779	645.944	788.854	191.149	740.6	747.92	116.869	678.37	671.555	193.323	590.049	760.579	-189.702	681.295	729.557	-124.131	591.976	652.386	-168.545	621.91614	530.25122	169.85725	664.7843	448.92123	130.41832	576.41559	456.42883	174.64981	571.7597	441.22827	-157.37985	616.25342	390.76785	-102.03469	549.00281	399.12381	-162.67998	329.84879	280.21417	63.52622	441.12286	181.92896	60.48936	402.87436	183.64856	159.97461	511.47803	65.89341	125.09743	461.19952	77.29218	-59.14532	631.22601	75.22199	-29.5529	615.74884	67.57404	-126.92412	743.33643	48.87125	-58.87767	661.34723	1387.39954	-33.6569	550.87787	1486.25891	166.29474	608.37079	1493.08716	-248.74428	538.828	1288.52832	220.89751	642.08246	1253.49988	-262.80206	483.40756	1191.01147	249.79335	603.04517	1152.15063	-298.04898	603.70221	950.69586	268.2428	555.29132	941.33374	313.43967	733.53351	941.62952	-234.94266	693.87311	923.03162	-296.11426	439.68005	102.99475	187.34283	478.19489	97.774	84.30115	678.12256	41.4342	-134.55154	693.02637	50.76318	-33.18934	728.005	1608.24072	44.661	744.0733	1609.94983	-93.73433	740.64722	1784.26392	-19.29137
22	0.35	627.20428	1090.22095	112.22041	638.09167	1068.82678	-147.4424	434.90848	1076.83813	-13.94937	650.287	792.26	187.946	744.78	754.476	111.813	686.138	675.946	188.907	581.19	759.73	-190.006	671.571	726.53	-124.304	580.473	651.528	-168.82	635.30103	531.05676	171.00667	680.06946	451.89883	128.22722	592.2074	454.36432	175.7308	555.90106	442.00931	-157.82275	599.7041	390.67603	-103.17105	532.80011	399.99445	-163.20932	355.38675	262.35117	66.55398	473.43622	172.79489	60.40207	436.85916	170.40172	160.41968	553.59668	61.56613	121.63648	442.66626	77.70182	-59.31138	612.24689	75.26912	-29.93702	596.90558	67.24938	-127.22605	724.19507	48.54072	-59.0692	660.06238	1387.41296	-34.15689	548.14423	1485.35852	165.86488	607.68329	1493.8595	-249.03979	532.51428	1288.58093	219.57889	643.73358	1255.72778	-264.79181	476.73364	1192.23169	247.75076	605.84595	1152.78345	-299.70944	597.01782	951.01703	268.04214	550.06299	942.58215	312.66925	741.54639	947.15289	-233.72278	702.20068	926.24054	-294.17975	482.39581	93.14487	187.08556	517.10022	91.49265	82.5228	659.052	41.20323	-134.94968	674.12305	50.53188	-33.38573	727.55774	1608.78711	44.15877	742.86774	1610.05298	-93.88335	740.28711	1784.25415	-18.96976
